<svg xmlns="http://www.w3.org/2000/svg" viewBox="0 0 180 38">
  <defs>
    <style>
      .cls-1 {
        fill: #fff;
      }
    </style>
  </defs>
  <g id="Group_21" data-name="Group 21" transform="translate(-80 -24)">
    <path id="Path_1" data-name="Path 1" class="cls-1" d="M.313,18.8H.626V11.087a1.744,1.744,0,0,1,.825-1.4L15.96,1.639a1.811,1.811,0,0,1,1.65.056L30.156,9.633a1.9,1.9,0,0,1,.8,1.453V18.8H33.6V10.22a1.837,1.837,0,0,0-.825-1.426L17.639.214a1.961,1.961,0,0,0-1.679,0L.825,8.795A1.794,1.794,0,0,0,0,10.22V18.8Z" transform="translate(80 23.975)"/>
    <path id="Path_2" data-name="Path 2" class="cls-1" d="M16.828,32.383h.228V26.848a1.306,1.306,0,0,1,.6-1.006l10.413-5.814a1.29,1.29,0,0,1,1.195.028l9.018,5.73a1.383,1.383,0,0,1,.569,1.062v5.534h1.878V26.205a1.234,1.234,0,0,0-.6-1.006L29.288,19.022a1.289,1.289,0,0,0-1.195,0L17.2,25.2a1.275,1.275,0,0,0-.6,1.006v6.177Z" transform="translate(68.123 10.394)"/>
    <path id="Path_3" data-name="Path 3" class="cls-1" d="M33.342,46.018h.142V42.636a.8.8,0,0,1,.37-.615L40.2,38.5a.719.719,0,0,1,.711.028L46.4,42.021a.816.816,0,0,1,.341.643v3.382h1.166V42.272a.8.8,0,0,0-.37-.615L40.91,37.884a.858.858,0,0,0-.74,0l-6.6,3.745a.8.8,0,0,0-.37.615V45.99C33.2,46.018,33.257,46.018,33.342,46.018Z" transform="translate(56.245 -3.241)"/>
    <path id="Path_4" data-name="Path 4" class="cls-1" d="M33.286,68.8h-.313v7.715a1.744,1.744,0,0,1-.825,1.4l-14.509,8.05a1.811,1.811,0,0,1-1.65-.056L3.442,77.94a1.9,1.9,0,0,1-.8-1.453V68.8H0v8.581a1.836,1.836,0,0,0,.825,1.426L15.96,87.388a1.961,1.961,0,0,0,1.679,0l15.135-8.581a1.794,1.794,0,0,0,.825-1.426V68.8Z" transform="translate(80 -25.576)"/>
    <path id="Path_5" data-name="Path 5" class="cls-1" d="M40.526,68.8H40.3v5.534a1.306,1.306,0,0,1-.6,1.006L29.288,81.155a1.29,1.29,0,0,1-1.195-.028L19.075,75.4a1.383,1.383,0,0,1-.569-1.062V68.8H16.6v6.177a1.234,1.234,0,0,0,.6,1.006l10.868,6.177a1.289,1.289,0,0,0,1.195,0l10.868-6.177a1.275,1.275,0,0,0,.6-1.006V68.8Z" transform="translate(68.123 -25.576)"/>
    <path id="Path_6" data-name="Path 6" class="cls-1" d="M47.766,68.8h-.142v3.382a.8.8,0,0,1-.37.615L40.91,76.319a.719.719,0,0,1-.711-.028l-5.491-3.466a.816.816,0,0,1-.341-.643V68.8H33.2v3.745a.8.8,0,0,0,.37.615L40.2,76.906a.858.858,0,0,0,.74,0l6.629-3.745a.8.8,0,0,0,.37-.615V68.8Z" transform="translate(56.245 -25.576)"/>
    <path id="Path_7" data-name="Path 7" class="cls-1" d="M148.3,36.1h2.276v2.907a7.928,7.928,0,0,1,2.134-2.18,4.334,4.334,0,0,1,2.361-.727,3.955,3.955,0,0,1,1.963.587l-1.166,1.845a3.158,3.158,0,0,0-1.166-.307,3.263,3.263,0,0,0-2.134.894,5.535,5.535,0,0,0-1.565,2.8,25.575,25.575,0,0,0-.427,5.87v6.177H148.3Z" transform="translate(-26.109 -2.017)"/>
    <path id="Path_8" data-name="Path 8" class="cls-1" d="M198.891,47.868l1.878.978a10.655,10.655,0,0,1-2.134,2.879,8,8,0,0,1-2.731,1.649,9.292,9.292,0,0,1-3.414.559,8.258,8.258,0,0,1-6.6-2.711,9.159,9.159,0,0,1-.37-11.907,8.278,8.278,0,0,1,6.856-3.214,8.536,8.536,0,0,1,7.055,3.3,9.12,9.12,0,0,1,1.906,5.814H185.776a6.8,6.8,0,0,0,1.935,4.864,6.218,6.218,0,0,0,4.609,1.9,7.261,7.261,0,0,0,2.56-.447,7.13,7.13,0,0,0,2.134-1.2A12.942,12.942,0,0,0,198.891,47.868Zm0-4.556a6.963,6.963,0,0,0-1.309-2.8,5.964,5.964,0,0,0-2.247-1.677,7.092,7.092,0,0,0-2.93-.643,6.334,6.334,0,0,0-4.381,1.621A7.325,7.325,0,0,0,186,43.339h12.888Z" transform="translate(-51.295 -2.017)"/>
    <path id="Path_9" data-name="Path 9" class="cls-1" d="M259.9,36.1h2.219v3.494a9.227,9.227,0,0,1,2.959-2.627,7.238,7.238,0,0,1,3.528-.866,6.26,6.26,0,0,1,3.442.978,5.855,5.855,0,0,1,2.219,2.6,13.456,13.456,0,0,1,.711,5.115v9.168h-2.219V45.408a18.832,18.832,0,0,0-.256-3.913,4.329,4.329,0,0,0-1.479-2.544,4.6,4.6,0,0,0-2.873-.839,5.576,5.576,0,0,0-3.613,1.314,6.194,6.194,0,0,0-2.105,3.242,23.126,23.126,0,0,0-.313,4.612v6.68H259.9Z" transform="translate(-105.96 -2.017)"/>
    <path id="Path_10" data-name="Path 10" class="cls-1" d="M335.719,36.1a8.636,8.636,0,0,1,6.629,2.851,8.986,8.986,0,0,1-.142,12.355,9.25,9.25,0,0,1-12.973,0,8.986,8.986,0,0,1-.142-12.355A8.636,8.636,0,0,1,335.719,36.1Zm0,2.124a6.515,6.515,0,0,0-4.78,2.013,6.625,6.625,0,0,0-1.991,4.864,6.911,6.911,0,0,0,.91,3.438A6.411,6.411,0,0,0,332.3,51a7.047,7.047,0,0,0,6.771,0,6.411,6.411,0,0,0,2.447-2.46,6.912,6.912,0,0,0,.91-3.438,6.624,6.624,0,0,0-1.991-4.864A6.345,6.345,0,0,0,335.719,38.224Z" transform="translate(-153.755 -2.017)"/>
    <path id="Path_11" data-name="Path 11" class="cls-1" d="M395.8,36.1h2.361l5.8,13.249L409.683,36.1h2.39l-7.909,17.861h-.427Z" transform="translate(-203.197 -2.017)"/>
    <path id="Path_12" data-name="Path 12" class="cls-1" d="M476.58,36.1V53.961h-2.191V50.607a9.681,9.681,0,0,1-3.129,2.516,8.646,8.646,0,0,1-3.812.839,8.444,8.444,0,0,1-6.259-2.627,8.647,8.647,0,0,1-2.589-6.373,8.906,8.906,0,0,1,8.933-8.861,8.261,8.261,0,0,1,3.841.894,8.671,8.671,0,0,1,3.016,2.655V36.1ZM467.7,38.2a6.83,6.83,0,0,0-3.414.894,6.509,6.509,0,0,0-2.5,2.516,6.947,6.947,0,0,0,2.5,9.42,6.625,6.625,0,0,0,3.385.922,7.287,7.287,0,0,0,3.471-.894,6.362,6.362,0,0,0,2.5-2.46,7.187,7.187,0,0,0-1.081-8.385A6.613,6.613,0,0,0,467.7,38.2Z" transform="translate(-248.131 -2.017)"/>
    <path id="Path_13" data-name="Path 13" class="cls-1" d="M535.6,36.1h2.276v2.907a7.928,7.928,0,0,1,2.134-2.18,4.334,4.334,0,0,1,2.361-.727,3.956,3.956,0,0,1,1.963.587l-1.166,1.845A3.158,3.158,0,0,0,542,38.224a3.263,3.263,0,0,0-2.134.894,5.534,5.534,0,0,0-1.565,2.8,25.575,25.575,0,0,0-.427,5.87v6.177H535.6Z" transform="translate(-303.224 -2.017)"/>
    <path id="Path_14" data-name="Path 14" class="cls-1" d="M585.391,47.868l1.878.978a10.655,10.655,0,0,1-2.134,2.879,7.994,7.994,0,0,1-2.731,1.649,9.292,9.292,0,0,1-3.414.559,8.258,8.258,0,0,1-6.6-2.711,9.159,9.159,0,0,1-.37-11.907,8.278,8.278,0,0,1,6.856-3.214,8.536,8.536,0,0,1,7.055,3.3,9.121,9.121,0,0,1,1.906,5.814H572.276a6.8,6.8,0,0,0,1.935,4.864,6.218,6.218,0,0,0,4.609,1.9,7.261,7.261,0,0,0,2.56-.447,7.13,7.13,0,0,0,2.134-1.2A11.859,11.859,0,0,0,585.391,47.868Zm0-4.556a6.963,6.963,0,0,0-1.309-2.8,5.965,5.965,0,0,0-2.247-1.677,7.092,7.092,0,0,0-2.93-.643,6.334,6.334,0,0,0-4.381,1.621,7.325,7.325,0,0,0-2.02,3.522h12.888Z" transform="translate(-327.838 -2.017)"/>
  </g>
</svg>
